<?xml version="1.0" encoding="utf-8"?>
<!-- Generator: Adobe Illustrator 16.0.0, SVG Export Plug-In . SVG Version: 6.00 Build 0)  -->
<!DOCTYPE svg PUBLIC "-//W3C//DTD SVG 1.1//EN" "http://www.w3.org/Graphics/SVG/1.1/DTD/svg11.dtd">
<svg version="1.1" id="Layer_1" xmlns="http://www.w3.org/2000/svg" xmlns:xlink="http://www.w3.org/1999/xlink" x="0px" y="0px"
	 width="300px" height="300px" viewBox="0 0 300 300" enable-background="new 0 0 300 300" xml:space="preserve">
<g>
	<path d="M150,10c37.396,0,72.552,14.562,98.994,41.005C275.438,77.448,290,112.605,290,150c0,37.395-14.562,72.552-41.006,98.994
		C222.552,275.438,187.395,290,150,290c-37.395,0-72.552-14.562-98.995-41.006C24.562,222.552,10,187.396,10,150
		s14.562-72.552,41.005-98.995C77.448,24.562,112.604,10,150,10 M150,0C67.157,0,0,67.157,0,150c0,82.842,67.157,150,150,150
		c82.842,0,150-67.158,150-150C300,67.157,232.842,0,150,0L150,0z"/>
</g>
</svg>
