<?xml version="1.0" encoding="utf-8"?>
<!-- Generator: Adobe Illustrator 16.0.0, SVG Export Plug-In . SVG Version: 6.00 Build 0)  -->
<!DOCTYPE svg PUBLIC "-//W3C//DTD SVG 1.1//EN" "http://www.w3.org/Graphics/SVG/1.1/DTD/svg11.dtd">
<svg version="1.1" id="Layer_1" xmlns="http://www.w3.org/2000/svg" xmlns:xlink="http://www.w3.org/1999/xlink" x="0px" y="0px"
	 width="300px" height="300px" viewBox="0 0 300 300" enable-background="new 0 0 300 300" xml:space="preserve">
<g>
	<path d="M150,2c39.532,0,76.698,15.395,104.651,43.348C282.605,73.302,298,110.468,298,150s-15.395,76.697-43.349,104.651
		S189.532,298,150,298s-76.698-15.395-104.652-43.349C17.395,226.698,2,189.532,2,150S17.395,73.302,45.348,45.348S110.468,2,150,2
		 M150,0C67.157,0,0,67.157,0,150c0,82.842,67.157,150,150,150c82.842,0,150-67.158,150-150C300,67.157,232.842,0,150,0L150,0z"/>
</g>
</svg>
